<svg width="132" height="96" viewBox="0 0 132 96" fill="none" xmlns="http://www.w3.org/2000/svg" xmlns:xlink="http://www.w3.org/1999/xlink">
<g id="Dress">
<path fill-rule="evenodd" clip-rule="evenodd" d="M7.36666 66.5H5.78526C2.56983 66.5 0.190282 69.4912 0.913301 72.6243L1.60561 75.6243C2.12915 77.893 4.14928 79.5 6.47756 79.5H22.5L25.9492 68.2901C26.3044 67.1359 27.0652 66.1492 28.0913 65.5123L41 57.5L69 66.5V82V90.5005C69 93.2619 71.2386 95.5 74 95.5H117C119.761 95.5 122 93.2614 122 90.5V82C128.331 80.4023 130.675 78.3151 130.615 72.1498C130.604 70.9676 131.016 69.8177 131.326 68.6767C131.441 68.2525 131.5 67.8126 131.5 67.3678V24.3377C131.5 22.8925 130.876 21.5346 129.816 20.5955C129.354 20.1863 128.869 19.7929 128.483 19.3113C121.36 10.4191 114.692 6.36121 98.6084 1.66377C98.1962 1.5434 97.7994 1.35737 97.4055 1.18655C95.987 0.571468 94.3486 0.643435 92.9778 1.40947L80.7226 8.25795C79.3262 9.03831 77.6407 9.10339 76.1882 8.43303C72.6331 8.30026 69.527 6.08758 68.2332 5.02574C67.7966 4.66749 67.3366 4.32201 66.7912 4.17586C65.9293 3.94496 65.0204 3.94887 64.1602 4.18763C63.6473 4.32996 63.1318 4.49398 62.6033 4.55698C49.5938 6.10792 43.5407 8.81352 36.3163 16.5064C35.8584 16.994 35.2948 17.3684 34.756 17.7647C34.105 18.2435 33.5755 18.8762 33.2187 19.6125L11.8663 63.6802C11.0307 65.4048 9.28296 66.5 7.36666 66.5Z" fill="url(#pattern0_6_58)"/>
<path d="M69 82V66.5L41 57.5L28.0913 65.5123C27.0652 66.1492 26.3044 67.1359 25.9492 68.2901L22.5 79.5L22.8157 79.7105C23.5898 80.2266 24.4927 80.5164 25.4226 80.5474L41.9485 81.0983C43.2629 81.1421 44.5417 80.6663 45.5078 79.7739L46.6201 78.7464C48.5305 76.9818 51.4746 76.9762 53.3916 78.7337L55.1365 80.3333C56.0164 81.1399 57.1558 81.6052 58.3488 81.645L69 82Z" fill="#FAD49E"/>
<path d="M122 82H69M122 82C128.331 80.4023 130.675 78.3151 130.615 72.1498C130.604 70.9676 131.016 69.8177 131.326 68.6767C131.441 68.2525 131.5 67.8126 131.5 67.3678V24.3377C131.5 22.8925 130.876 21.5346 129.816 20.5955C129.354 20.1863 128.869 19.7929 128.483 19.3113C121.36 10.4191 114.692 6.36121 98.6084 1.66377C98.1962 1.5434 97.7994 1.35737 97.4055 1.18655C95.987 0.571468 94.3486 0.643435 92.9778 1.40947L80.7226 8.25795C79.3262 9.03831 77.6407 9.10339 76.1882 8.43303C72.6331 8.30026 69.527 6.08758 68.2332 5.02574C67.7966 4.66749 67.3366 4.32201 66.7912 4.17586C65.9293 3.94496 65.0204 3.94887 64.1602 4.18763C63.6473 4.32996 63.1318 4.49398 62.6033 4.55698C49.5938 6.10792 43.5407 8.81352 36.3163 16.5064C35.8584 16.994 35.2948 17.3684 34.756 17.7647C34.105 18.2435 33.5755 18.8762 33.2187 19.6125L11.8663 63.6802C11.0307 65.4048 9.28296 66.5 7.36666 66.5H5.78526C2.56983 66.5 0.190282 69.4912 0.913301 72.6243L1.60561 75.6243C2.12915 77.893 4.14928 79.5 6.47756 79.5H22.5M122 82V90.5C122 93.2614 119.761 95.5 117 95.5H74C71.2386 95.5 69 93.2619 69 90.5005M69 82V66.5M69 82V90.5005M69 82C69 84.352 69 87.626 69 90.5005M69 82L58.3488 81.645C57.1558 81.6052 56.0164 81.1399 55.1365 80.3333L53.3916 78.7337C51.4746 76.9762 48.5305 76.9818 46.6201 78.7464L45.5078 79.7739C44.5417 80.6663 43.2629 81.1421 41.9485 81.0983L25.4226 80.5474C24.4927 80.5164 23.5898 80.2266 22.8157 79.7105L22.5 79.5M69 66.5L101.203 65.1945C103.883 65.0858 106 62.8812 106 60.1986V44M69 66.5L41 57.5M46 39L41 57.5M41 57.5L28.0913 65.5123C27.0652 66.1492 26.3044 67.1359 25.9492 68.2901L22.5 79.5" stroke="black"/>
</g>
<defs>
<pattern id="pattern0_6_58" patternContentUnits="objectBoundingBox" width="1" height="1">
<use xlink:href="#image0_6_58" transform="matrix(0.00254268 0 0 0.00350877 -0.157283 0)"/>
</pattern>
<image id="image0_6_58" data-name="image.png" width="517" height="285" href="../assets/texture.png"/>
</defs>
</svg>
