<svg width="777" height="63" viewBox="0 0 777 63" fill="none" xmlns="http://www.w3.org/2000/svg">
<path d="M23.728 49.6C16.9013 49.6 11.2693 47.3387 6.83201 42.816C2.43734 38.2507 0.240005 32.4693 0.240005 25.472C0.240005 18.4747 2.41601 12.6933 6.76801 8.12799C11.1627 3.56266 16.7093 1.27999 23.408 1.27999C27.8453 1.27999 31.8773 2.55999 35.504 5.11999C39.1307 7.63733 41.6267 10.9013 42.992 14.912L38.064 16.512C36.9973 13.3973 35.0987 10.88 32.368 8.95999C29.68 6.99732 26.672 6.01599 23.344 6.01599C18.1387 6.01599 13.872 7.85066 10.544 11.52C7.21601 15.1467 5.55201 19.7973 5.55201 25.472C5.55201 31.0613 7.30134 35.6907 10.8 39.36C14.2987 43.0293 18.7573 44.864 24.176 44.864C29.168 44.864 33.3707 43.2427 36.784 40C40.24 36.7147 41.968 32.6613 41.968 27.84H16.88V23.104H47.408V48H42.928L42.416 39.296H42.352C40.3893 42.5387 37.7867 45.0773 34.544 46.912C31.3013 48.704 27.696 49.6 23.728 49.6Z" fill="#5D4EBF"/>
<path d="M84.8175 44.544C81.6602 47.7013 77.4788 49.28 72.2735 49.28C67.0682 49.28 62.8868 47.7013 59.7295 44.544C56.6148 41.344 55.0575 37.12 55.0575 31.872C55.0575 26.5813 56.6148 22.3573 59.7295 19.2C62.8868 16 67.0682 14.4 72.2735 14.4C77.4788 14.4 81.6602 16 84.8175 19.2C87.9748 22.3573 89.5535 26.5813 89.5535 31.872C89.5535 37.12 87.9748 41.344 84.8175 44.544ZM63.2495 41.344C65.5108 43.6907 68.5188 44.864 72.2735 44.864C76.0282 44.864 79.0148 43.6907 81.2335 41.344C83.4948 38.9547 84.6255 35.7973 84.6255 31.872C84.6255 27.9467 83.4948 24.8107 81.2335 22.464C79.0148 20.0747 76.0282 18.88 72.2735 18.88C68.5188 18.88 65.5108 20.0747 63.2495 22.464C61.0308 24.8107 59.9215 27.9467 59.9215 31.872C59.9215 35.7973 61.0308 38.9547 63.2495 41.344Z" fill="#5D4EBF"/>
<path d="M97.85 48V0.959991H102.714V30.272H102.778L116.474 15.68H122.938L110.714 28.416L124.026 48H118.138L107.386 31.936L102.714 36.8V48H97.85Z" fill="#5D4EBF"/>
<path d="M141.448 49.28C137.736 49.28 134.813 48.1493 132.68 45.888C130.547 43.6267 129.48 40.512 129.48 36.544V15.68H134.408V36.032C134.408 38.8053 135.155 41.0027 136.648 42.624C138.184 44.2453 140.232 45.056 142.792 45.056C146.035 45.056 148.701 44.032 150.792 41.984C152.883 39.8933 153.928 37.2053 153.928 33.92V15.68H158.792V48H154.376L153.928 43.2H153.864C151.005 47.2533 146.867 49.28 141.448 49.28Z" fill="#5D4EBF"/>
<path d="M168.375 48V0.959991H173.239V48H168.375Z" fill="#5D4EBF"/>
<path d="M182.825 61.44V15.68H187.049L187.561 21.248H187.625C190.569 16.6827 194.772 14.4 200.233 14.4C204.969 14.4 208.894 16.064 212.009 19.392C215.124 22.6773 216.681 26.8373 216.681 31.872C216.681 36.9067 215.124 41.0667 212.009 44.352C208.894 47.6373 204.99 49.28 200.297 49.28C194.921 49.28 190.74 47.0613 187.753 42.624H187.689V61.44H182.825ZM199.657 44.8C203.156 44.8 206.036 43.5627 208.297 41.088C210.601 38.6133 211.753 35.5413 211.753 31.872C211.753 28.1173 210.601 25.024 208.297 22.592C206.036 20.1173 203.156 18.88 199.657 18.88C196.201 18.88 193.321 20.1173 191.017 22.592C188.713 25.0667 187.561 28.16 187.561 31.872C187.561 35.5413 188.713 38.6133 191.017 41.088C193.321 43.5627 196.201 44.8 199.657 44.8Z" fill="#5D4EBF"/>
<path d="M239.041 14.336C241.814 14.336 244.076 15.232 245.825 17.024C247.617 18.7733 248.662 21.248 248.961 24.448L244.737 25.856C244.481 23.5947 243.798 21.8667 242.689 20.672C241.58 19.4773 240.129 18.88 238.337 18.88C235.734 18.88 233.665 19.904 232.129 21.952C230.636 23.9573 229.889 26.7093 229.889 30.208V48H225.025V15.68H229.185L229.633 20.736H229.697C230.593 18.7733 231.873 17.216 233.537 16.064C235.201 14.912 237.036 14.336 239.041 14.336Z" fill="#5D4EBF"/>
<path d="M259.606 9.40799C258.497 9.40799 257.622 9.08799 256.982 8.44799C256.342 7.76532 256.023 6.89066 256.023 5.82399C256.023 4.75732 256.342 3.90399 256.982 3.26399C257.665 2.62399 258.54 2.30399 259.606 2.30399C260.673 2.30399 261.548 2.62399 262.231 3.26399C262.913 3.90399 263.255 4.75732 263.255 5.82399C263.255 6.89066 262.913 7.76532 262.231 8.44799C261.548 9.08799 260.673 9.40799 259.606 9.40799ZM257.11 48V15.68H261.975V48H257.11Z" fill="#5D4EBF"/>
<path d="M284.654 62.72C280.728 62.72 277.315 61.952 274.413 60.416C271.555 58.9227 269.486 56.8747 268.206 54.272L272.366 51.456C273.432 53.5467 275.011 55.2107 277.102 56.448C279.235 57.6853 281.709 58.304 284.525 58.304C288.195 58.304 291.075 57.3227 293.166 55.36C295.256 53.44 296.301 50.7733 296.301 47.36V44.544H296.238C295.128 46.4213 293.571 47.8933 291.566 48.96C289.56 50.0267 287.427 50.56 285.166 50.56C281.155 50.56 277.934 49.2373 275.502 46.592C273.07 43.904 271.854 40.4693 271.854 36.288V15.68H276.718V36.288C276.718 39.232 277.528 41.6213 279.15 43.456C280.771 45.248 282.968 46.144 285.742 46.144C288.6 46.144 291.054 45.1413 293.102 43.136C295.192 41.1307 296.238 38.6133 296.238 35.584V15.68H301.102L301.166 47.36C301.166 52.1813 299.672 55.936 296.686 58.624C293.742 61.3547 289.731 62.72 284.654 62.72Z" fill="#5D4EBF"/>
<path d="M321.31 49.28C317.641 49.28 314.633 48.384 312.286 46.592C309.982 44.7573 308.83 42.4107 308.83 39.552C308.83 33.664 313.694 30.1227 323.422 28.928L331.422 27.968C333.171 27.7547 334.046 26.9227 334.046 25.472C334.046 23.4667 333.171 21.8667 331.422 20.672C329.673 19.4347 327.39 18.816 324.574 18.816C321.673 18.816 319.198 19.6053 317.15 21.184C315.145 22.7627 314.078 24.5547 313.95 26.56L309.534 24.704C309.833 21.9733 311.433 19.584 314.334 17.536C317.235 15.4453 320.713 14.4 324.766 14.4C328.947 14.4 332.339 15.488 334.942 17.664C337.545 19.7973 338.846 22.656 338.846 26.24V48H334.43L333.918 42.624H333.854C332.702 44.7147 331.038 46.3573 328.862 47.552C326.686 48.704 324.169 49.28 321.31 49.28ZM322.142 44.864C325.555 44.864 328.371 43.8613 330.59 41.856C332.809 39.8507 333.918 37.2907 333.918 34.176V31.872L323.934 33.088C317.107 33.9413 313.694 36.0747 313.694 39.488C313.694 41.1093 314.483 42.4107 316.062 43.392C317.641 44.3733 319.667 44.864 322.142 44.864Z" fill="#5D4EBF"/>
<path d="M365.481 14.4C369.193 14.4 372.116 15.5307 374.249 17.792C376.383 20.0533 377.45 23.168 377.45 27.136V48H372.521V27.648C372.521 24.8747 371.754 22.6773 370.218 21.056C368.724 19.4347 366.697 18.624 364.137 18.624C360.895 18.624 358.228 19.6693 356.137 21.76C354.047 23.808 353.002 26.4747 353.002 29.76V48H348.137V15.68H352.554L353.002 20.48H353.066C355.924 16.4267 360.063 14.4 365.481 14.4Z" fill="#5D4EBF"/>
<path d="M407.99 48V2.87999H413.302V23.872H413.366L432.374 2.87999H438.902L422.646 20.8L440.054 48H433.782L419.19 24.576L413.302 30.784V48H407.99Z" fill="#5D4EBF"/>
<path d="M457.048 49.28C453.378 49.28 450.37 48.384 448.024 46.592C445.72 44.7573 444.568 42.4107 444.568 39.552C444.568 33.664 449.431 30.1227 459.16 28.928L467.16 27.968C468.909 27.7547 469.784 26.9227 469.784 25.472C469.784 23.4667 468.909 21.8667 467.16 20.672C465.41 19.4347 463.128 18.816 460.312 18.816C457.41 18.816 454.935 19.6053 452.887 21.184C450.882 22.7627 449.816 24.5547 449.688 26.56L445.271 24.704C445.57 21.9733 447.17 19.584 450.072 17.536C452.973 15.4453 456.45 14.4 460.504 14.4C464.685 14.4 468.077 15.488 470.68 17.664C473.282 19.7973 474.584 22.656 474.584 26.24V48H470.168L469.656 42.624H469.592C468.44 44.7147 466.776 46.3573 464.6 47.552C462.424 48.704 459.906 49.28 457.048 49.28ZM457.88 44.864C461.293 44.864 464.109 43.8613 466.327 41.856C468.546 39.8507 469.656 37.2907 469.656 34.176V31.872L459.672 33.088C452.845 33.9413 449.432 36.0747 449.432 39.488C449.432 41.1093 450.221 42.4107 451.8 43.392C453.378 44.3733 455.405 44.864 457.88 44.864Z" fill="#5D4EBF"/>
<path d="M497.891 14.336C500.664 14.336 502.926 15.232 504.675 17.024C506.467 18.7733 507.512 21.248 507.811 24.448L503.587 25.856C503.331 23.5947 502.648 21.8667 501.539 20.672C500.43 19.4773 498.979 18.88 497.187 18.88C494.584 18.88 492.515 19.904 490.979 21.952C489.486 23.9573 488.739 26.7093 488.739 30.208V48H483.875V15.68H488.035L488.483 20.736H488.547C489.443 18.7733 490.723 17.216 492.387 16.064C494.051 14.912 495.886 14.336 497.891 14.336Z" fill="#5D4EBF"/>
<path d="M529.592 49.28C526.563 49.28 524.11 48.3627 522.232 46.528C520.355 44.6507 519.417 42.24 519.417 39.296V19.712H512.313V15.68H519.417V6.07999L524.281 4.92799V15.68H538.745V19.712H524.281V38.784C524.281 40.6187 524.792 42.1333 525.816 43.328C526.883 44.48 528.291 45.056 530.04 45.056C531.747 45.056 533.241 44.48 534.521 43.328C535.843 42.1333 536.654 40.5333 536.953 38.528L540.92 40.192C540.494 42.9227 539.192 45.12 537.016 46.784C534.883 48.448 532.408 49.28 529.592 49.28Z" fill="#5D4EBF"/>
<path d="M547.588 48V0.959991H552.451V20.48H552.516C555.374 16.4267 559.513 14.4 564.932 14.4C568.644 14.4 571.566 15.5307 573.7 17.792C575.833 20.0533 576.899 23.168 576.899 27.136V48H571.972V27.648C571.972 24.8747 571.203 22.6773 569.667 21.056C568.174 19.4347 566.148 18.624 563.588 18.624C560.345 18.624 557.678 19.6693 555.588 21.76C553.497 23.808 552.451 26.4747 552.451 29.76V48H547.588Z" fill="#5D4EBF"/>
<path d="M589.107 9.40799C587.997 9.40799 587.123 9.08799 586.483 8.44799C585.843 7.76532 585.523 6.89066 585.523 5.82399C585.523 4.75732 585.843 3.90399 586.483 3.26399C587.165 2.62399 588.04 2.30399 589.107 2.30399C590.173 2.30399 591.048 2.62399 591.731 3.26399C592.413 3.90399 592.755 4.75732 592.755 5.82399C592.755 6.89066 592.413 7.76532 591.731 8.44799C591.048 9.08799 590.173 9.40799 589.107 9.40799ZM586.611 48V15.68H591.475V48H586.611Z" fill="#5D4EBF"/>
<path d="M601.738 48V0.959991H606.601V30.272H606.665L620.361 15.68H626.825L614.601 28.416L627.913 48H622.025L611.273 31.936L606.601 36.8V48H601.738Z" fill="#5D4EBF"/>
<path d="M647.951 49.28C642.788 49.28 638.522 47.616 635.151 44.288C631.78 40.9173 630.095 36.6507 630.095 31.488C630.095 26.5387 631.652 22.464 634.767 19.264C637.882 16.0213 641.828 14.4 646.607 14.4C651.3 14.4 655.076 16 657.935 19.2C660.836 22.4 662.33 26.5173 662.415 31.552C662.415 32.4053 662.394 33.0453 662.351 33.472H635.151C635.492 36.8427 636.858 39.5947 639.247 41.728C641.636 43.8187 644.559 44.864 648.015 44.864C650.49 44.864 652.73 44.288 654.735 43.136C656.74 41.984 658.212 40.512 659.151 38.72L663.375 40.448C662.308 43.0507 660.367 45.184 657.551 46.848C654.735 48.4693 651.535 49.28 647.951 49.28ZM635.215 29.184H657.231C656.932 25.9413 655.823 23.424 653.903 21.632C651.983 19.7973 649.53 18.88 646.543 18.88C643.556 18.88 641.039 19.84 638.991 21.76C636.943 23.6373 635.684 26.112 635.215 29.184Z" fill="#5D4EBF"/>
<path d="M683.741 62.72C679.816 62.72 676.402 61.952 673.501 60.416C670.642 58.9227 668.573 56.8747 667.293 54.272L671.453 51.456C672.52 53.5467 674.098 55.2107 676.189 56.448C678.322 57.6853 680.797 58.304 683.613 58.304C687.282 58.304 690.162 57.3227 692.253 55.36C694.344 53.44 695.389 50.7733 695.389 47.36V44.544H695.325C694.216 46.4213 692.658 47.8933 690.653 48.96C688.648 50.0267 686.514 50.56 684.253 50.56C680.242 50.56 677.021 49.2373 674.589 46.592C672.157 43.904 670.941 40.4693 670.941 36.288V15.68H675.805V36.288C675.805 39.232 676.616 41.6213 678.237 43.456C679.858 45.248 682.056 46.144 684.829 46.144C687.688 46.144 690.141 45.1413 692.189 43.136C694.28 41.1307 695.325 38.6133 695.325 35.584V15.68H700.189L700.253 47.36C700.253 52.1813 698.76 55.936 695.773 58.624C692.829 61.3547 688.818 62.72 683.741 62.72Z" fill="#5D4EBF"/>
<path d="M720.398 49.28C716.728 49.28 713.72 48.384 711.373 46.592C709.069 44.7573 707.917 42.4107 707.917 39.552C707.917 33.664 712.782 30.1227 722.51 28.928L730.51 27.968C732.259 27.7547 733.133 26.9227 733.133 25.472C733.133 23.4667 732.259 21.8667 730.51 20.672C728.76 19.4347 726.478 18.816 723.662 18.816C720.76 18.816 718.286 19.6053 716.238 21.184C714.232 22.7627 713.165 24.5547 713.037 26.56L708.622 24.704C708.92 21.9733 710.52 19.584 713.422 17.536C716.323 15.4453 719.8 14.4 723.854 14.4C728.035 14.4 731.427 15.488 734.029 17.664C736.632 19.7973 737.934 22.656 737.934 26.24V48H733.518L733.006 42.624H732.942C731.79 44.7147 730.126 46.3573 727.95 47.552C725.774 48.704 723.256 49.28 720.398 49.28ZM721.23 44.864C724.643 44.864 727.459 43.8613 729.678 41.856C731.896 39.8507 733.006 37.2907 733.006 34.176V31.872L723.021 33.088C716.195 33.9413 712.782 36.0747 712.782 39.488C712.782 41.1093 713.571 42.4107 715.149 43.392C716.728 44.3733 718.755 44.864 721.23 44.864Z" fill="#5D4EBF"/>
<path d="M764.569 14.4C768.281 14.4 771.204 15.5307 773.337 17.792C775.47 20.0533 776.537 23.168 776.537 27.136V48H771.609V27.648C771.609 24.8747 770.841 22.6773 769.305 21.056C767.812 19.4347 765.785 18.624 763.225 18.624C759.982 18.624 757.316 19.6693 755.225 21.76C753.134 23.808 752.089 26.4747 752.089 29.76V48H747.225V15.68H751.641L752.089 20.48H752.153C755.012 16.4267 759.15 14.4 764.569 14.4Z" fill="#5D4EBF"/>
</svg>
