<svg width="28" height="27" viewBox="0 0 28 27" fill="none" xmlns="http://www.w3.org/2000/svg">
<path d="M21 9V8H7V9H21ZM4.5 12.5H15.5V11.5H4.5V12.5ZM21 16.5V15.5H7V16.5H21ZM6.25091 21.7456L6.28023 21.4381L6.01842 21.2743C2.65088 19.1668 0.5 15.7836 0.5 12C0.5 5.71826 6.46907 0.5 14 0.5C21.5309 0.5 27.5 5.71826 27.5 12C27.5 18.2817 21.5309 23.5 14 23.5C12.8277 23.5 11.691 23.3727 10.6077 23.1337L10.3054 23.067L10.111 23.3079C9.25026 24.374 8.53069 25.0334 7.65158 25.4375C6.94632 25.7617 6.10384 25.9374 4.94599 25.9866C5.27852 25.4505 5.53057 24.9462 5.72274 24.4125C6.00687 23.6233 6.15077 22.7956 6.25091 21.7456ZM18.5 12.5H23.5V11.5H18.5V12.5Z" stroke="#5D4EBF"/>
</svg>
