<svg width="440" height="164" viewBox="0 0 440 164" fill="none" xmlns="http://www.w3.org/2000/svg">
<path d="M26.6932 54.8C19.0132 54.8 12.6772 52.256 7.68523 47.168C2.74123 42.032 0.269226 35.528 0.269226 27.656C0.269226 19.784 2.71723 13.28 7.61323 8.144C12.5572 3.008 18.7972 0.439998 26.3332 0.439998C31.3252 0.439998 35.8612 1.88 39.9412 4.76C44.0212 7.592 46.8292 11.264 48.3652 15.776L42.8212 17.576C41.6212 14.072 39.4852 11.24 36.4132 9.08C33.3892 6.872 30.0052 5.768 26.2612 5.768C20.4052 5.768 15.6052 7.832 11.8612 11.96C8.11723 16.04 6.24523 21.272 6.24523 27.656C6.24523 33.944 8.21323 39.152 12.1492 43.28C16.0852 47.408 21.1012 49.472 27.1972 49.472C32.8132 49.472 37.5412 47.648 41.3812 44C45.2692 40.304 47.2132 35.744 47.2132 30.32H18.9892V24.992H53.3332V53H48.2932L47.7172 43.208H47.6452C45.4372 46.856 42.5092 49.712 38.8612 51.776C35.2132 53.792 31.1572 54.8 26.6932 54.8Z" fill="#5D4EBF"/>
<path d="M96.8589 49.112C93.3069 52.664 88.6029 54.44 82.7469 54.44C76.8909 54.44 72.1869 52.664 68.6349 49.112C65.1309 45.512 63.3789 40.76 63.3789 34.856C63.3789 28.904 65.1309 24.152 68.6349 20.6C72.1869 17 76.8909 15.2 82.7469 15.2C88.6029 15.2 93.3069 17 96.8589 20.6C100.411 24.152 102.187 28.904 102.187 34.856C102.187 40.76 100.411 45.512 96.8589 49.112ZM72.5949 45.512C75.1389 48.152 78.5229 49.472 82.7469 49.472C86.9709 49.472 90.3309 48.152 92.8269 45.512C95.3709 42.824 96.6429 39.272 96.6429 34.856C96.6429 30.44 95.3709 26.912 92.8269 24.272C90.3309 21.584 86.9709 20.24 82.7469 20.24C78.5229 20.24 75.1389 21.584 72.5949 24.272C70.0989 26.912 68.8509 30.44 68.8509 34.856C68.8509 39.272 70.0989 42.824 72.5949 45.512Z" fill="#5D4EBF"/>
<path d="M112.96 53V0.079998H118.432V33.056H118.504L133.912 16.64H141.184L127.432 30.968L142.408 53H135.784L123.688 34.928L118.432 40.4V53H112.96Z" fill="#5D4EBF"/>
<path d="M163.448 54.44C159.272 54.44 155.984 53.168 153.584 50.624C151.184 48.08 149.984 44.576 149.984 40.112V16.64H155.528V39.536C155.528 42.656 156.368 45.128 158.048 46.952C159.776 48.776 162.08 49.688 164.96 49.688C168.608 49.688 171.608 48.536 173.96 46.232C176.312 43.88 177.488 40.856 177.488 37.16V16.64H182.96V53H177.992L177.488 47.6H177.416C174.2 52.16 169.544 54.44 163.448 54.44Z" fill="#5D4EBF"/>
<path d="M195.181 53V0.079998H200.653V53H195.181Z" fill="#5D4EBF"/>
<path d="M212.877 68.12V16.64H217.629L218.205 22.904H218.277C221.589 17.768 226.317 15.2 232.461 15.2C237.789 15.2 242.205 17.072 245.709 20.816C249.213 24.512 250.965 29.192 250.965 34.856C250.965 40.52 249.213 45.2 245.709 48.896C242.205 52.592 237.813 54.44 232.533 54.44C226.485 54.44 221.781 51.944 218.421 46.952H218.349V68.12H212.877ZM231.813 49.4C235.749 49.4 238.989 48.008 241.533 45.224C244.125 42.44 245.421 38.984 245.421 34.856C245.421 30.632 244.125 27.152 241.533 24.416C238.989 21.632 235.749 20.24 231.813 20.24C227.925 20.24 224.685 21.632 222.093 24.416C219.501 27.2 218.205 30.68 218.205 34.856C218.205 38.984 219.501 42.44 222.093 45.224C224.685 48.008 227.925 49.4 231.813 49.4Z" fill="#5D4EBF"/>
<path d="M277.56 15.128C280.68 15.128 283.224 16.136 285.192 18.152C287.208 20.12 288.384 22.904 288.72 26.504L283.968 28.088C283.68 25.544 282.912 23.6 281.664 22.256C280.416 20.912 278.784 20.24 276.768 20.24C273.84 20.24 271.512 21.392 269.784 23.696C268.104 25.952 267.264 29.048 267.264 32.984V53H261.792V16.64H266.472L266.976 22.328H267.048C268.056 20.12 269.496 18.368 271.368 17.072C273.24 15.776 275.304 15.128 277.56 15.128Z" fill="#5D4EBF"/>
<path d="M302.137 9.584C300.889 9.584 299.905 9.224 299.185 8.504C298.465 7.736 298.105 6.752 298.105 5.552C298.105 4.352 298.465 3.392 299.185 2.67199C299.953 1.952 300.937 1.592 302.137 1.592C303.337 1.592 304.321 1.952 305.089 2.67199C305.857 3.392 306.241 4.352 306.241 5.552C306.241 6.752 305.857 7.736 305.089 8.504C304.321 9.224 303.337 9.584 302.137 9.584ZM299.329 53V16.64H304.801V53H299.329Z" fill="#5D4EBF"/>
<path d="M331.754 69.56C327.338 69.56 323.498 68.696 320.234 66.968C317.018 65.288 314.69 62.984 313.25 60.056L317.93 56.888C319.13 59.24 320.906 61.112 323.258 62.504C325.658 63.896 328.442 64.592 331.61 64.592C335.738 64.592 338.978 63.488 341.33 61.28C343.682 59.12 344.858 56.12 344.858 52.28V49.112H344.786C343.538 51.224 341.786 52.88 339.53 54.08C337.274 55.28 334.874 55.88 332.33 55.88C327.818 55.88 324.194 54.392 321.458 51.416C318.722 48.392 317.354 44.528 317.354 39.824V16.64H322.826V39.824C322.826 43.136 323.738 45.824 325.562 47.888C327.386 49.904 329.858 50.912 332.978 50.912C336.194 50.912 338.954 49.784 341.258 47.528C343.61 45.272 344.786 42.44 344.786 39.032V16.64H350.258L350.33 52.28C350.33 57.704 348.65 61.928 345.29 64.952C341.978 68.024 337.466 69.56 331.754 69.56Z" fill="#5D4EBF"/>
<path d="M374.433 54.44C370.305 54.44 366.921 53.432 364.281 51.416C361.689 49.352 360.393 46.712 360.393 43.496C360.393 36.872 365.865 32.888 376.809 31.544L385.809 30.464C387.777 30.224 388.761 29.288 388.761 27.656C388.761 25.4 387.777 23.6 385.809 22.256C383.841 20.864 381.273 20.168 378.105 20.168C374.841 20.168 372.057 21.056 369.753 22.832C367.497 24.608 366.297 26.624 366.153 28.88L361.185 26.792C361.521 23.72 363.321 21.032 366.585 18.728C369.849 16.376 373.761 15.2 378.321 15.2C383.025 15.2 386.841 16.424 389.769 18.872C392.697 21.272 394.161 24.488 394.161 28.52V53H389.193L388.617 46.952H388.545C387.249 49.304 385.377 51.152 382.929 52.496C380.481 53.792 377.649 54.44 374.433 54.44ZM375.369 49.472C379.209 49.472 382.377 48.344 384.873 46.088C387.369 43.832 388.617 40.952 388.617 37.448V34.856L377.385 36.224C369.705 37.184 365.865 39.584 365.865 43.424C365.865 45.248 366.753 46.712 368.529 47.816C370.305 48.92 372.585 49.472 375.369 49.472Z" fill="#5D4EBF"/>
<path d="M425.566 15.2C429.742 15.2 433.03 16.472 435.43 19.016C437.83 21.56 439.03 25.064 439.03 29.528V53H433.486V30.104C433.486 26.984 432.622 24.512 430.894 22.688C429.214 20.864 426.934 19.952 424.054 19.952C420.406 19.952 417.406 21.128 415.054 23.48C412.702 25.784 411.526 28.784 411.526 32.48V53H406.054V16.64H411.022L411.526 22.04H411.598C414.814 17.48 419.47 15.2 425.566 15.2Z" fill="#5D4EBF"/>
<path d="M6.04188 147V96.24H12.0179V119.856H12.0899L33.4739 96.24H40.8179L22.5299 116.4L42.1139 147H35.0579L18.6419 120.648L12.0179 127.632V147H6.04188Z" fill="#5D4EBF"/>
<path d="M62.6716 148.44C58.5436 148.44 55.1596 147.432 52.5196 145.416C49.9276 143.352 48.6316 140.712 48.6316 137.496C48.6316 130.872 54.1036 126.888 65.0476 125.544L74.0476 124.464C76.0156 124.224 76.9996 123.288 76.9996 121.656C76.9996 119.4 76.0156 117.6 74.0476 116.256C72.0796 114.864 69.5116 114.168 66.3436 114.168C63.0796 114.168 60.2956 115.056 57.9916 116.832C55.7356 118.608 54.5356 120.624 54.3916 122.88L49.4236 120.792C49.7596 117.72 51.5596 115.032 54.8236 112.728C58.0876 110.376 61.9996 109.2 66.5596 109.2C71.2636 109.2 75.0796 110.424 78.0076 112.872C80.9356 115.272 82.3996 118.488 82.3996 122.52V147H77.4316L76.8556 140.952H76.7836C75.4876 143.304 73.6156 145.152 71.1676 146.496C68.7196 147.792 65.8876 148.44 62.6716 148.44ZM63.6076 143.472C67.4476 143.472 70.6156 142.344 73.1116 140.088C75.6076 137.832 76.8556 134.952 76.8556 131.448V128.856L65.6236 130.224C57.9436 131.184 54.1036 133.584 54.1036 137.424C54.1036 139.248 54.9916 140.712 56.7676 141.816C58.5436 142.92 60.8236 143.472 63.6076 143.472Z" fill="#5D4EBF"/>
<path d="M110.061 109.128C113.181 109.128 115.725 110.136 117.693 112.152C119.709 114.12 120.885 116.904 121.221 120.504L116.469 122.088C116.181 119.544 115.413 117.6 114.165 116.256C112.917 114.912 111.285 114.24 109.269 114.24C106.341 114.24 104.013 115.392 102.285 117.696C100.605 119.952 99.7645 123.048 99.7645 126.984V147H94.2925V110.64H98.9725L99.4765 116.328H99.5485C100.557 114.12 101.997 112.368 103.869 111.072C105.741 109.776 107.805 109.128 110.061 109.128Z" fill="#5D4EBF"/>
<path d="M147.165 148.44C143.757 148.44 140.997 147.408 138.885 145.344C136.773 143.232 135.717 140.52 135.717 137.208V115.176H127.725V110.64H135.717V99.84L141.189 98.544V110.64H157.461V115.176H141.189V136.632C141.189 138.696 141.765 140.4 142.917 141.744C144.117 143.04 145.701 143.688 147.669 143.688C149.589 143.688 151.269 143.04 152.709 141.744C154.197 140.4 155.109 138.6 155.445 136.344L159.909 138.216C159.429 141.288 157.965 143.76 155.517 145.632C153.117 147.504 150.333 148.44 147.165 148.44Z" fill="#5D4EBF"/>
<path d="M168.849 147V94.08H174.321V116.04H174.393C177.609 111.48 182.265 109.2 188.361 109.2C192.537 109.2 195.825 110.472 198.225 113.016C200.625 115.56 201.825 119.064 201.825 123.528V147H196.281V124.104C196.281 120.984 195.417 118.512 193.689 116.688C192.009 114.864 189.729 113.952 186.849 113.952C183.201 113.952 180.201 115.128 177.849 117.48C175.497 119.784 174.321 122.784 174.321 126.48V147H168.849Z" fill="#5D4EBF"/>
<path d="M216.998 103.584C215.75 103.584 214.766 103.224 214.046 102.504C213.326 101.736 212.966 100.752 212.966 99.552C212.966 98.352 213.326 97.392 214.046 96.672C214.814 95.952 215.798 95.592 216.998 95.592C218.198 95.592 219.182 95.952 219.95 96.672C220.718 97.392 221.102 98.352 221.102 99.552C221.102 100.752 220.718 101.736 219.95 102.504C219.182 103.224 218.198 103.584 216.998 103.584ZM214.19 147V110.64H219.662V147H214.19Z" fill="#5D4EBF"/>
<path d="M232.648 147V94.08H238.12V127.056H238.192L253.6 110.64H260.872L247.12 124.968L262.096 147H255.472L243.376 128.928L238.12 134.4V147H232.648Z" fill="#5D4EBF"/>
<path d="M286.078 148.44C280.27 148.44 275.47 146.568 271.678 142.824C267.886 139.032 265.99 134.232 265.99 128.424C265.99 122.856 267.742 118.272 271.246 114.672C274.75 111.024 279.19 109.2 284.566 109.2C289.846 109.2 294.094 111 297.31 114.6C300.574 118.2 302.254 122.832 302.35 128.496C302.35 129.456 302.326 130.176 302.278 130.656H271.678C272.062 134.448 273.598 137.544 276.286 139.944C278.974 142.296 282.262 143.472 286.15 143.472C288.934 143.472 291.454 142.824 293.71 141.528C295.966 140.232 297.622 138.576 298.678 136.56L303.43 138.504C302.23 141.432 300.046 143.832 296.878 145.704C293.71 147.528 290.11 148.44 286.078 148.44ZM271.75 125.832H296.518C296.182 122.184 294.934 119.352 292.774 117.336C290.614 115.272 287.854 114.24 284.494 114.24C281.134 114.24 278.302 115.32 275.998 117.48C273.694 119.592 272.278 122.376 271.75 125.832Z" fill="#5D4EBF"/>
<path d="M327.782 163.56C323.366 163.56 319.526 162.696 316.262 160.968C313.046 159.288 310.718 156.984 309.278 154.056L313.958 150.888C315.158 153.24 316.934 155.112 319.286 156.504C321.686 157.896 324.47 158.592 327.638 158.592C331.766 158.592 335.006 157.488 337.358 155.28C339.71 153.12 340.886 150.12 340.886 146.28V143.112H340.814C339.566 145.224 337.814 146.88 335.558 148.08C333.302 149.28 330.902 149.88 328.358 149.88C323.846 149.88 320.222 148.392 317.486 145.416C314.75 142.392 313.382 138.528 313.382 133.824V110.64H318.854V133.824C318.854 137.136 319.766 139.824 321.59 141.888C323.414 143.904 325.886 144.912 329.006 144.912C332.222 144.912 334.982 143.784 337.286 141.528C339.638 139.272 340.814 136.44 340.814 133.032V110.64H346.286L346.358 146.28C346.358 151.704 344.678 155.928 341.318 158.952C338.006 162.024 333.494 163.56 327.782 163.56Z" fill="#5D4EBF"/>
<path d="M370.46 148.44C366.332 148.44 362.948 147.432 360.308 145.416C357.716 143.352 356.42 140.712 356.42 137.496C356.42 130.872 361.892 126.888 372.836 125.544L381.836 124.464C383.804 124.224 384.788 123.288 384.788 121.656C384.788 119.4 383.804 117.6 381.836 116.256C379.868 114.864 377.3 114.168 374.132 114.168C370.868 114.168 368.084 115.056 365.78 116.832C363.524 118.608 362.324 120.624 362.18 122.88L357.212 120.792C357.548 117.72 359.348 115.032 362.612 112.728C365.876 110.376 369.788 109.2 374.348 109.2C379.052 109.2 382.868 110.424 385.796 112.872C388.724 115.272 390.188 118.488 390.188 122.52V147H385.22L384.644 140.952H384.572C383.276 143.304 381.404 145.152 378.956 146.496C376.508 147.792 373.676 148.44 370.46 148.44ZM371.396 143.472C375.236 143.472 378.404 142.344 380.9 140.088C383.396 137.832 384.644 134.952 384.644 131.448V128.856L373.412 130.224C365.732 131.184 361.892 133.584 361.892 137.424C361.892 139.248 362.78 140.712 364.556 141.816C366.332 142.92 368.612 143.472 371.396 143.472Z" fill="#5D4EBF"/>
<path d="M421.593 109.2C425.769 109.2 429.057 110.472 431.457 113.016C433.857 115.56 435.057 119.064 435.057 123.528V147H429.513V124.104C429.513 120.984 428.649 118.512 426.921 116.688C425.241 114.864 422.961 113.952 420.081 113.952C416.433 113.952 413.433 115.128 411.081 117.48C408.729 119.784 407.553 122.784 407.553 126.48V147H402.081V110.64H407.049L407.553 116.04H407.625C410.841 111.48 415.497 109.2 421.593 109.2Z" fill="#5D4EBF"/>
</svg>
