

<svg id="person" width="36" height="30" viewBox="0 0 36 30" fill="none" xmlns="http://www.w3.org/2000/svg">
<path d="M14.5805 5.68966H1V28.7471C12.3333 29.1054 35 29.6069 35 28.7471C35 27.8874 34.5441 13.0172 34.3161 5.68966H21.2241M14.5805 5.68966V1H21.2241V5.68966M14.5805 5.68966V8.22988H21.2241V5.68966M18.8305 21.4684H28.3075M18.8305 18.5374H25.9626M18.8305 15.5575H28.3075M18.8305 12.4799H31.1897M14.5805 18.8305L14.0431 18.1466V16.8764V15.2644V13.5057L12.3333 12.4799H10.4282C10.4282 12.2356 10.5063 11.7471 10.819 11.7471C11.1316 11.7471 10.6887 11.2586 10.4282 11.0144H9.1092L7.98563 11.7471L7.35057 12.773L6.86207 14.1408V15.5575V17.7557L6.37356 18.5374L7.35057 18.8305L8.42529 19.5144L7.35057 20.5891L6.08046 21.4684L4.8592 22.1523L4.56609 23.5201H4.8592H15.7529V22.4943L14.5805 21.1264L13.2126 20.5891L12.1868 20.1006V19.2701L13.2126 18.8305M14.5805 18.8305H15.069H13.2126M14.5805 18.8305H13.2126" stroke="#5D4EBF"/>
</svg>
